# AST/ASF file generated using VICON BodyLanguage
# -----------------------------------------------
:version 1.10
:name VICON
:units
  mass 1.0
  length 0.45
  angle deg
:documentation
   .ast/.asf automatically generated from VICON data using
   VICON BodyBuilder and BodyLanguage model FoxedUp or BRILLIANT.MOD
:root
   order TX TY TZ RX RY RZ
   axis XYZ
   position 0 0 0  
   orientation 0 0 0 
:bonedata
  begin
     id 1 
     name lhipjoint
     direction 0.627457 -0.725269 0.283342 
     length 2.53237 
     axis 0 0 0  XYZ
  end
  begin
     id 2 
     name lfemur
     direction 0.34202 -0.939693 0  
     length 7.32496  
     axis 0 0 20  XYZ
    dof rx ry rz
    limits (-160.0 20.0)
           (-70.0 70.0)
           (-60.0 70.0)
  end
  begin
     id 3 
     name ltibia
     direction 0.34202 -0.939693 0   
     length 7.69674   
     axis 0 0 20   XYZ
    dof rx
    limits (-10.0 170.0)
  end
  begin
     id 4 
     name lfoot
     direction 0.127289 -0.349722 0.928166   
     length 1.8612   
     axis -90 7.62852e-016 20   XYZ
    dof rx rz
    limits (-45.0 90.0)
           (-70.0 20.0)
  end
  begin
     id 5 
     name ltoes
     direction 1.53561e-011 -4.21864e-011 1   
     length 0.925608   
     axis -90 7.62852e-016 20   XYZ
    dof rx
    limits (-90.0 20.0)
  end
  begin
     id 6 
     name rhipjoint
     direction -0.609094 -0.738725 0.288599   
     length 2.48624  
     axis 0 0 0  XYZ 
  end
  begin
     id 7 
     name rfemur
     direction -0.34202 -0.939693 0   
     length 7.44259   
     axis 0 0 -20   XYZ
    dof rx ry rz
    limits (-160.0 20.0)
           (-70.0 70.0)
           (-70.0 60.0)
  end
  begin
     id 8 
     name rtibia
     direction -0.34202 -0.939693 0   
     length 7.7781   
     axis 0 0 -20   XYZ
    dof rx
    limits (-10.0 170.0)
 end
 begin
     id 9 
     name rfoot
     direction -0.107015 -0.294021 0.949789   
     length 2.14741  
     axis -90 -7.62852e-016 -20   XYZ
    dof rx rz
    limits (-45.0 90.0)
           (-20.0 70.0)
  end
  begin
     id 10 
     name rtoes
     direction -1.53497e-011 -4.21924e-011 1   
     length 1.0706   
     axis -90 -7.62852e-016 -20   XYZ
    dof rx
    limits (-90.0 20.0)
  end
  begin
     id 11 
     name lowerback
     direction -0.0142066 0.998112 -0.0597545   
     length 1.86627   
     axis 0 0 0   XYZ
    dof rx ry rz
    limits (-20.0 45.0)
           (-30.0 30.0)
           (-30.0 30.0)
  end
  begin
     id 12 
     name upperback
     direction 0.00547294 0.999744 0.0219437   
     length 1.86272   
     axis 0 0 0   XYZ
    dof rx ry rz
    limits (-20.0 45.0)
           (-30.0 30.0)
           (-30.0 30.0)
  end
  begin
     id 13 
     name thorax
     direction 0.0116162 0.998704 0.0495538   
     length 1.8703   
     axis 0 0 0   XYZ
    dof rx ry rz
    limits (-20.0 45.0)
           (-30.0 30.0)
           (-30.0 30.0)
  end
  begin
     id 14 
     name lowerneck
     direction -0.0106574 0.998739 0.0490586   
     length 1.8074   
     axis 0 0 0   XYZ
    dof rx ry rz
    limits (-20.0 45.0)
           (-30.0 30.0)
           (-30.0 30.0)
  end
  begin
     id 15 
     name upperneck
     direction 0.030527 0.976587 -0.212944   
     length 1.80681   
     axis 0 0 0   XYZ
    dof rx ry rz
    limits (-20.0 45.0)
           (-30.0 30.0)
           (-30.0 30.0)
  end
  begin
     id 16
     name head
     direction 0.00869225 0.997035 -0.0764531  
     length 1.8313  
     axis 0 0 0   XYZ
    dof rx ry rz
    limits (-20.0 45.0)
           (-30.0 30.0)
           (-30.0 30.0)
  end
  begin
     id 17 
     name lclavicle
     direction 0.915958 0.399447 0.0382386  
     length 3.78965  
     axis 0 0 0   XYZ
    dof ry rz
    limits (-20.0 10.0)
           (0.0 20.0)
  end
  begin
     id 18 
     name lhumerus
     direction 1 -4.48967e-011 3.19303e-027   
     length 4.78095   
     axis -180 -30 -90   XYZ
    dof rx ry rz
    limits (-60.0 90.0)
           (-90.0 90.0)
           (-90.0 90.0)
  end
  begin
     id 19
     name lradius
     direction 1 -4.48967e-011 -3.77974e-027   
     length 3.58615   
     axis -180 -30 -90   XYZ
    dof rx
    limits (-10.0 170.0)
  end
  begin
     id 20
     name lwrist
     direction 1 -4.48927e-011 1.2807e-027   
     length 1.79307   
     axis 1.91374e-015 90 90   XYZ
    dof ry
    limits (-180.0 0.0)
 end
  begin
     id 21 
     name lhand
     direction 1 -4.49036e-011 2.5614e-027   
     length 0.659812   
     axis -1.63439e-015 90 90   XYZ
    dof rx rz
    limits (-90.0 90.0)
           (-45.0 45.0)
  end
  begin
     id 22 
     name lfingers
     direction 1 -4.49052e-011 5.1228e-027   
     length 0.531957   
     axis -3.26879e-015 90 90   XYZ
    dof rx
    limits (0.0 90.0)
  end
  begin
     id 23
     name lthumb
     direction 0.707107 -6.35012e-011 0.707107   
     length 0.763787   
     axis -90 45 2.85299e-015   XYZ
    dof rx rz
    limits (-45.0 45.0)
           (-45.0 45.0)
  end
  begin
     id 24 
     name rclavicle
     direction -0.895351 0.435135 0.0948887   
     length 3.70497  
     axis 0 0 0   XYZ 
    dof ry rz
    limits (-10.0 20.0)
           (-20.0 0.0)
  end
  begin
     id 25 
     name rhumerus
     direction -1 -4.48971e-011 2.38946e-027  
     length 4.48913   
     axis -180 30 90   XYZ
    dof rx ry rz
    limits (-90.0 60.0)
           (-90.0 90.0)
           (-90.0 90.0)
  end
  begin
     id 26 
     name rradius
     direction -1 -4.4895e-011 4.38668e-027   
     length 3.7051   
     axis -180 30 90   XYZ
    dof rx
    limits (-10.0 170.0)
  end
  begin
     id 27 
     name rwrist
     direction -1 -4.49007e-011 1.2807e-027   
     length 1.85255   
     axis 1.91374e-015 -90 -90   XYZ
    dof ry
    limits (-180.0 0.0)
  end
  begin
     id 28
     name rhand
     direction -1 -4.48851e-011 2.5614e-027   
     length 0.449136   
     axis -1.63439e-015 -90 -90   XYZ
    dof rx rz
    limits (-90.0 90.0)
           (-45.0 45.0)
  end
  begin
     id 29
     name rfingers
     direction -1 -4.49128e-011 5.1228e-027   
     length 0.362105   
     axis -3.26879e-015 -90 -90   XYZ
    dof rx
    limits (0.0 90.0)
  end
  begin
     id 30
     name rthumb
     direction -0.707107 -6.34851e-011 0.707107   
     length 0.519912   
     axis -90 -45 -2.85299e-015   XYZ
    dof rx rz
    limits (-45.0 45.0)
           (-45.0 45.0)
  end
:hierarchy
  begin
    root lhipjoint rhipjoint lowerback
    lhipjoint lfemur
    lfemur ltibia
    ltibia lfoot
    lfoot ltoes
    rhipjoint rfemur
    rfemur rtibia
    rtibia rfoot
    rfoot rtoes
    lowerback upperback
    upperback thorax
    thorax lowerneck lclavicle rclavicle
    lowerneck upperneck
    upperneck head
    lclavicle lhumerus
    lhumerus lradius
    lradius lwrist
    lwrist lhand lthumb
    lhand lfingers
    rclavicle rhumerus
    rhumerus rradius
    rradius rwrist
    rwrist rhand rthumb
    rhand rfingers
  end

#!OML:ASF I:\Actors\actors\Patient Classification 2\Patient 1\Session 1\actor1.ASF
:FULLY-SPECIFIED
:DEGREES
1
root -0.717168 18.6894 5.58954 0.734107 -3.64 -1.92273
lowerback 2.30957 0.686822 -1.64482
upperback -1.49805 0.865889 0.299438
thorax -2.86253 0.467064 1.1882
lowerneck -14.0789 -0.636029 0.918055
upperneck 25.1583 -1.52266 1.37838
head 10.3733 -0.453621 0.13481
rclavicle -1.53002e-014 -5.56597e-015
rhumerus -50.9092 -4.49979 -84.4035
rradius 45.2213
rwrist 17.1049
rhand -2.17449 -37.6674
rfingers 7.12502
rthumb 23.506 -66.2512
lclavicle -1.53002e-014 -5.56597e-015
lhumerus -43.0781 7.70098 85.3631
lradius 39.0663
lwrist -12.7058
lhand -9.25615 -26.3831
lfingers 7.12502
lthumb 16.6999 2.91856
rfemur 0 0 0
rtibia 0
rfoot 0 0
rtoes 0
lfemur -3.95346 -6.58789 -12.7957
ltibia 21.4521
lfoot -23.5308 14.6645
ltoes -54.2035
2
root -0.713938 18.6903 5.58923 0.753172 -3.61366 -1.8688
lowerback 2.31002 0.672654 -1.68901
upperback -1.5284 0.844914 0.288754
thorax -2.89391 0.457829 1.2028
lowerneck -14.0226 -0.623519 0.961181
upperneck 25.1502 -1.50682 1.34833
head 10.3587 -0.446227 0.119083
rclavicle -1.40827e-014 -3.57812e-015
rhumerus -50.9957 -4.48997 -84.4011
rradius 45.2335
rwrist 17.1661
rhand -1.38959 -37.9419
rfingers 7.12502
rthumb 24.2587 -66.4272
lclavicle -1.40827e-014 -3.57812e-015
lhumerus -43.0889 7.63263 85.3563
lradius 39.1126
lwrist -12.6844
lhand -9.31203 -26.3822
lfingers 7.12502
lthumb 16.6461 2.92399
rfemur 0 0 0
rtibia 0
rfoot 0 0
rtoes 0
lfemur -3.98704 -6.58309 -12.8629
ltibia 21.4565
lfoot -23.508 14.6635
ltoes -54.2491
3
root -0.711198 18.6909 5.58962 0.763458 -3.61927 -1.85337
lowerback 2.29463 0.664038 -1.70391
upperback -1.54551 0.833424 0.302816
thorax -2.90293 0.452745 1.22623
lowerneck -13.9776 -0.616584 0.972483
upperneck 25.1499 -1.4858 1.29864
head 10.3492 -0.441673 0.10242
rclavicle -6.23687e-015 5.96354e-015
rhumerus -51.0447 -4.35729 -84.4311
rradius 45.2185
rwrist 17.1393
rhand -1.38428 -38.076
rfingers 7.12502
rthumb 24.2638 -66.5607
lclavicle -6.23687e-015 5.96354e-015
lhumerus -43.0917 7.602 85.3727
lradius 39.1682
lwrist -12.6216
lhand -9.38996 -26.3878
lfingers 7.12502
lthumb 16.571 2.92464
rfemur 0 0 0
rtibia 0
rfoot 0 0
rtoes 0
lfemur -3.99925 -6.58136 -12.8901
ltibia 21.4612
lfoot -23.5248 14.6824
ltoes -54.2656
4
root -0.709086 18.6907 5.59006 0.778707 -3.61639 -1.8743
lowerback 2.26309 0.662908 -1.70034
upperback -1.54177 0.833459 0.333582
thorax -2.88173 0.452823 1.25624
lowerneck -14.0442 -0.629276 0.928704
upperneck 25.208 -1.49642 1.30383
head 10.3837 -0.449141 0.110078
rclavicle 8.57259e-016 5.96354e-015
rhumerus -51.0394 -4.25446 -84.4425
rradius 45.1958
rwrist 17.0896
rhand -1.34089 -38.1408
rfingers 7.12502
rthumb 24.3054 -66.6199
lclavicle 8.57259e-016 5.96354e-015
lhumerus -43.0565 7.57659 85.404
lradius 39.1993
lwrist -12.5768
lhand -9.33483 -26.4364
lfingers 7.12502
lthumb 16.6241 2.87165
rfemur 0 0 0
rtibia 0
rfoot 0 0
rtoes 0
lfemur -4.01238 -6.63105 -12.876
ltibia 21.4661
lfoot -23.5914 14.6873
ltoes -54.2086
5
root -0.706041 18.6907 5.59114 0.801237 -3.59906 -1.90068
lowerback 2.22265 0.661023 -1.67361
upperback -1.53635 0.833366 0.36151
thorax -2.85336 0.452276 1.27046
lowerneck -14.0957 -0.64412 0.887855
upperneck 25.2416 -1.5174 1.33641
head 10.4066 -0.45815 0.125675
rclavicle 1.38466e-014 -4.77083e-015
rhumerus -51.0387 -4.21854 -84.4242
rradius 45.1986
rwrist 17.0273
rhand -1.31118 -38.1653
rfingers 7.12502
rthumb 24.3339 -66.6406
lclavicle 1.38466e-014 -4.77083e-015
lhumerus -42.9984 7.66621 85.3724
lradius 39.1683
lwrist -12.6972
lhand -9.19649 -26.489
lfingers 7.12502
lthumb 16.7573 2.80781
rfemur 0 0 0
rtibia 0
rfoot 0 0
rtoes 0
lfemur -4.02775 -6.70962 -12.8607
ltibia 21.4638
lfoot -23.6307 14.7034
ltoes -54.1659
6
root -0.702821 18.6909 5.59294 0.81187 -3.58775 -1.90599
lowerback 2.19984 0.66162 -1.6467
upperback -1.54697 0.835739 0.373467
thorax -2.85129 0.453118 1.26773
lowerneck -14.0477 -0.654547 0.861344
upperneck 25.2044 -1.52824 1.35299
head 10.3841 -0.464321 0.134834
rclavicle 6.1499e-015 5.1684e-015
rhumerus -51.0669 -4.23874 -84.3859
rradius 45.194
rwrist 17.0488
rhand -1.3661 -38.1912
rfingers 7.12502
rthumb 24.2813 -66.6735
lclavicle 6.1499e-015 5.1684e-015
lhumerus -42.9554 7.76105 85.3288
lradius 39.105
lwrist -12.8191
lhand -9.20144 -26.5401
lfingers 7.12502
lthumb 16.7525 2.75708
rfemur 0 0 0
rtibia 0
rfoot 0 0
rtoes 0
lfemur -4.02461 -6.77409 -12.8726
ltibia 21.4505
lfoot -23.6479 14.7423
ltoes -54.1431
7
root -0.700566 18.6913 5.5949 0.814655 -3.57666 -1.86806
lowerback 2.18511 0.658209 -1.68548
upperback -1.57184 0.830109 0.379283
thorax -2.86913 0.451469 1.29572
lowerneck -14.0017 -0.659845 0.792909
upperneck 25.2083 -1.53131 1.40383
head 10.3775 -0.466445 0.164281
rclavicle 2.3587e-014 -5.1684e-015
rhumerus -51.1004 -4.2397 -84.3501
rradius 45.1543
rwrist 17.112
rhand -1.47707 -38.2126
rfingers 7.12502
rthumb 24.1749 -66.7091
lclavicle 2.3587e-014 -5.1684e-015
lhumerus -42.9549 7.77303 85.325
lradius 39.0564
lwrist -12.8132
lhand -9.28426 -26.5683
lfingers 7.12502
lthumb 16.6728 2.73567
rfemur 0 0 0
rtibia 0
rfoot 0 0
rtoes 0
lfemur -4.01361 -6.84104 -12.9307
ltibia 21.4384
lfoot -23.708 14.7759
ltoes -54.0866
8
root -0.699047 18.6915 5.5964 0.819143 -3.5659 -1.82994
lowerback 2.17659 0.647808 -1.73852
upperback -1.59511 0.814563 0.385226
thorax -2.88867 0.445182 1.33226
lowerneck -14.0138 -0.654145 0.765729
upperneck 25.2774 -1.52588 1.4326
head 10.4056 -0.462397 0.179809
rclavicle -3.20851e-014 3.37934e-015
rhumerus -51.1358 -4.21101 -84.337
rradius 45.1443
rwrist 17.1134
rhand -1.5374 -38.2346
rfingers 7.12502
rthumb 24.117 -66.7388
lclavicle -3.20851e-014 3.37934e-015
lhumerus -42.975 7.77566 85.3146
lradius 39.0392
lwrist -12.7707
lhand -9.32631 -26.5315
lfingers 7.12502
lthumb 16.6323 2.7758
rfemur 0 0 0
rtibia 0
rfoot 0 0
rtoes 0
lfemur -4.00685 -6.90841 -12.9867
ltibia 21.4291
lfoot -23.7611 14.8061
ltoes -53.9999
9
root -0.698133 18.6916 5.59751 0.831137 -3.56784 -1.84364
lowerback 2.1771 0.640589 -1.72428
upperback -1.6136 0.805327 0.386273
thorax -2.90748 0.4406 1.32567
lowerneck -14.0505 -0.645752 0.806403
upperneck 25.3461 -1.52146 1.41332
head 10.4374 -0.457904 0.166523
rclavicle 1.57785e-015 3.97569e-015
rhumerus -51.1522 -4.22252 -84.339
rradius 45.1564
rwrist 17.1269
rhand -1.51034 -38.1863
rfingers 7.12502
rthumb 24.143 -66.6871
lclavicle 1.57785e-015 3.97569e-015
lhumerus -43.0098 7.74483 85.2819
lradius 39.0656
lwrist -12.7457
lhand -9.33701 -26.4317
lfingers 7.12502
lthumb 16.622 2.87653
rfemur 0 0 0
rtibia 0
rfoot 0 0
rtoes 0
lfemur -4.00553 -6.93926 -12.9785
ltibia 21.4146
lfoot -23.775 14.8192
ltoes -53.934
10
root -0.697278 18.6917 5.59835 0.861124 -3.56277 -1.85619
lowerback 2.15041 0.636693 -1.6992
upperback -1.62776 0.80124 0.381206
thorax -2.90641 0.438096 1.30679
lowerneck -14.0585 -0.638788 0.822915
upperneck 25.3616 -1.51782 1.41882
head 10.4446 -0.453792 0.166128
rclavicle -1.10947e-014 -1.07344e-014
rhumerus -51.1432 -4.25854 -84.3321
rradius 45.1587
rwrist 17.1568
rhand -1.46375 -38.0674
rfingers 7.12502
rthumb 24.1876 -66.5623
lclavicle -1.10947e-014 -1.07344e-014
lhumerus -43.0327 7.70016 85.252
lradius 39.0999
lwrist -12.7343
lhand -9.32614 -26.3862
lfingers 7.12502
lthumb 16.6325 2.92109
rfemur 0 0 0
rtibia 0
rfoot 0 0
rtoes 0
lfemur -4.03177 -6.93776 -12.963
ltibia 21.4042
lfoot -23.775 14.8068
ltoes -53.9414
11
root -0.695919 18.692 5.59959 0.879926 -3.53687 -1.81003
lowerback 2.11225 0.623281 -1.74409
upperback -1.63735 0.782202 0.37311
thorax -2.89467 0.429397 1.32489
lowerneck -14.0096 -0.629935 0.823548
upperneck 25.3155 -1.50538 1.42527
head 10.4182 -0.448003 0.170076
rclavicle -1.81391e-014 5.96354e-015
rhumerus -51.1442 -4.24394 -84.3218
rradius 45.1725
rwrist 17.1557
rhand -1.43129 -37.9653
rfingers 7.12502
rthumb 24.2188 -66.456
lclavicle -1.81391e-014 5.96354e-015
lhumerus -43.0369 7.71659 85.2308
lradius 39.1082
lwrist -12.7344
lhand -9.30596 -26.3495
lfingers 7.12502
lthumb 16.6519 2.95618
rfemur 0 0 0
rtibia 0
rfoot 0 0
rtoes 0
lfemur -4.06133 -6.92195 -13.0125
ltibia 21.408
lfoot -23.7549 14.7875
ltoes -53.9769
12
root -0.694951 18.6921 5.60151 0.870742 -3.51008 -1.77437
lowerback 2.09428 0.608294 -1.79432
upperback -1.63497 0.760802 0.371681
thorax -2.88202 0.419597 1.35279
lowerneck -13.9655 -0.629104 0.858837
upperneck 25.2553 -1.49888 1.37948
head 10.3869 -0.447975 0.148777
rclavicle -1.2306e-014 2.5842e-015
rhumerus -51.1416 -4.21072 -84.3203
rradius 45.1958
rwrist 17.1229
rhand -1.41739 -37.8757
rfingers 7.12502
rthumb 24.2321 -66.3646
lclavicle -1.2306e-014 2.5842e-015
lhumerus -43.0292 7.73392 85.2156
lradius 39.097
lwrist -12.7561
lhand -9.30201 -26.2328
lfingers 7.12502
lthumb 16.6557 3.07262
rfemur 0 0 0
rtibia 0
rfoot 0 0
rtoes 0
lfemur -4.06349 -6.83701 -13.0452
ltibia 21.419
lfoot -23.6958 14.7179
ltoes -54.0135
13
root -0.694916 18.6917 5.60305 0.859338 -3.48282 -1.79789
lowerback 2.09343 0.595367 -1.78812
upperback -1.62875 0.744081 0.38159
thorax -2.87455 0.411126 1.36032
lowerneck -13.9496 -0.628065 0.900636
upperneck 25.2093 -1.49774 1.34562
head 10.3663 -0.448054 0.129843
rclavicle -1.54679e-015 6.16232e-015
rhumerus -51.1296 -4.17511 -84.3325
rradius 45.234
rwrist 17.0484
rhand -1.41635 -37.8939
rfingers 7.12502
rthumb 24.2331 -66.3826
lclavicle -1.54679e-015 6.16232e-015
lhumerus -43.0193 7.75291 85.1777
lradius 39.0701
lwrist -12.8357
lhand -9.2565 -26.2014
lfingers 7.12502
lthumb 16.6995 3.10031
rfemur 0 0 0
rtibia 0
rfoot 0 0
rtoes 0
lfemur -4.06187 -6.74335 -13.0067
ltibia 21.4324
lfoot -23.6518 14.6173
ltoes -54.0465
14
root -0.695505 18.6912 5.60405 0.843332 -3.443 -1.82708
lowerback 2.1172 0.573901 -1.78905
upperback -1.63156 0.715499 0.40238
thorax -2.89007 0.397279 1.38331
lowerneck -13.9215 -0.622391 0.900115
upperneck 25.1699 -1.49026 1.35277
head 10.3466 -0.444401 0.13352
rclavicle 2.04375e-015 -1.19271e-015
rhumerus -51.1103 -4.09896 -84.3508
rradius 45.2637
rwrist 16.9735
rhand -1.45405 -38.0277
rfingers 7.12502
rthumb 24.1969 -66.5213
lclavicle 2.04375e-015 -1.19271e-015
lhumerus -43.0318 7.8305 85.1184
lradius 39.0232
lwrist -12.9418
lhand -9.17324 -26.2985
lfingers 7.12502
lthumb 16.7797 2.99646
rfemur 0 0 0
rtibia 0
rfoot 0 0
rtoes 0
lfemur -4.06484 -6.63394 -12.954
ltibia 21.4534
lfoot -23.6059 14.469
ltoes -54.0441
15
root -0.696456 18.6912 5.60402 0.819805 -3.39529 -1.84118
lowerback 2.15603 0.552858 -1.82395
upperback -1.63174 0.686298 0.432133
thorax -2.91191 0.383951 1.4345
lowerneck -13.9224 -0.630822 0.884697
upperneck 25.1678 -1.49444 1.33826
head 10.3459 -0.449566 0.130441
rclavicle 1.31633e-014 1.59028e-015
rhumerus -51.0641 -4.0268 -84.339
rradius 45.2556
rwrist 16.9647
rhand -1.44315 -38.0445
rfingers 7.12502
rthumb 24.2074 -66.5367
lclavicle 1.31633e-014 1.59028e-015
lhumerus -43.0526 7.87964 85.106
lradius 38.9952
lwrist -12.9731
lhand -9.14816 -26.393
lfingers 7.12502
lthumb 16.8038 2.89983
rfemur 0 0 0
rtibia 0
rfoot 0 0
rtoes 0
lfemur -4.07312 -6.43317 -12.9045
ltibia 21.4759
lfoot -23.4696 14.2675
ltoes -54.1293
